<svg xmlns="http://www.w3.org/2000/svg" version="1.1" xmlns:xlink="http://www.w3.org/1999/xlink" xmlns:svgjs="http://svgjs.dev/svgjs" width="1000" height="843" viewBox="0 0 1000 843"><g transform="matrix(1,0,0,1,-0.21113490688117054,0.3412955465586833)"><svg viewBox="0 0 293 247" data-background-color="#50a060" preserveAspectRatio="xMidYMid meet" height="843" width="1000" xmlns="http://www.w3.org/2000/svg" xmlns:xlink="http://www.w3.org/1999/xlink"><g id="tight-bounds" transform="matrix(1,0,0,1,0.06186252771618683,-0.09999999999999432)"><svg viewBox="0 0 292.8762749445676 247.2" height="247.2" width="292.8762749445676"><g><svg viewBox="0 0 292.8762749445676 247.2" height="247.2" width="292.8762749445676"><g><svg viewBox="0 0 292.8762749445676 247.2" height="247.2" width="292.8762749445676"><g id="textblocktransform"><svg viewBox="0 0 292.8762749445676 247.2" height="247.2" width="292.8762749445676" id="textblock"><g><svg viewBox="0 0 292.8762749445676 247.2" height="247.2" width="292.8762749445676"><g transform="matrix(1,0,0,1,0,0)"><svg width="292.8762749445676" viewBox="3.52 -30.4 39.129999999999995 33.04" height="247.2" data-palette-color="#454545"><path d="M3.88 0L3.88-3.91 10.25-3.91 10.25-26.49 3.52-26.49 3.52-30.4 22.78-30.4Q25.59-30.4 27.84-30.3 30.1-30.2 31.93-29.86L31.93-29.86Q34.08-29.44 35.6-28.67 37.11-27.91 38.05-26.81 38.99-25.71 39.42-24.32 39.84-22.92 39.84-21.26L39.84-21.26Q39.84-19.9 39.37-18.58 38.89-17.26 37.96-16.1 37.04-14.94 35.63-14.01 34.23-13.09 32.37-12.5L32.37-12.5Q30.4-11.91 27.99-11.76 25.59-11.6 22.78-11.6L22.78-11.6 15.8-11.6 15.8-3.91 24.49-3.91 24.49 0 3.88 0ZM17.5-5.37L17.5-9.89 21.41-9.89Q23.56-9.89 25.12-9.91 26.68-9.94 27.92-10.02 29.15-10.11 30.14-10.27 31.13-10.42 32.13-10.67L32.13-10.67Q34.38-11.21 36.13-12.19 37.89-13.18 39.1-14.56 40.31-15.94 40.94-17.69 41.58-19.43 41.58-21.48L41.58-21.48Q41.58-24 40.61-25.82 39.65-27.64 37.6-29.1L37.6-29.1Q38.84-28.56 39.79-27.72 40.75-26.88 41.38-25.85 42.02-24.83 42.33-23.71 42.65-22.58 42.65-21.48L42.65-21.48Q42.65-19.31 41.94-17.41 41.24-15.5 39.88-13.96 38.53-12.43 36.54-11.32 34.55-10.21 31.96-9.64L31.96-9.64Q31.18-9.47 30.2-9.34 29.22-9.2 27.95-9.12 26.68-9.03 25.07-9 23.46-8.96 21.41-8.96L21.41-8.96 18.48-8.96 18.48-5.37 17.5-5.37ZM15.8-15.5L23.83-15.5Q25.9-15.5 27.44-15.6 28.98-15.7 30.15-16.04L30.15-16.04Q32.25-16.63 33.07-17.9 33.89-19.17 33.89-21.07L33.89-21.07Q33.89-22.53 33.35-23.56 32.81-24.58 31.62-25.24 30.42-25.9 28.5-26.2 26.59-26.49 23.83-26.49L23.83-26.49 15.8-26.49 15.8-15.5ZM17.5-16.97L17.5-24.78 23.66-24.78Q27.39-24.78 29.36-24.37 31.32-23.95 31.93-22.92L31.93-22.92Q31.45-23.14 30.77-23.32 30.1-23.49 29.13-23.61 28.15-23.73 26.82-23.79 25.49-23.85 23.66-23.85L23.66-23.85 18.48-23.85 18.48-16.97 17.5-16.97ZM4.83-23.85L4.83-24.78 8.72-24.78 8.72-23.85 4.83-23.85ZM5.44 1.71L26.25 1.71 26.25-2.54 27.22-2.54 27.22 2.64 5.44 2.64 5.44 1.71Z" opacity="1" transform="matrix(1,0,0,1,0,0)" fill="#ffffff" class="wordmark-text-0" data-fill-palette-color="primary" id="text-0"></path></svg></g></svg></g></svg></g></svg></g><g></g></svg></g><defs></defs></svg><rect width="292.8762749445676" height="247.2" fill="none" stroke="none" visibility="hidden"></rect></g></svg></g></svg>